<?xml version="1.0" encoding="utf-8"?>
<svg version="1.1" id="Capa_1" x="0px" y="0px" viewBox="0 0 60 60" style="enable-background:new 0 0 60 60;" xmlns="http://www.w3.org/2000/svg">
  <path d="M 49.001 0 L 10.999 0 C 4.934 0 0 4.934 0 10.999 L 0 49.002 C 0 55.066 4.934 60 10.999 60 L 49.001 60 C 55.065 60 60 55.066 60 49.001 L 60 10.999 C 60 4.934 55.065 0 49.001 0 Z M 52.828 49.311 C 52.828 54.273 52.101 55.207 47.139 55.207 L 12.033 55.31 C 7.071 55.31 6.759 54.273 6.759 49.311 L 7.276 11.206 C 7.276 6.244 7.796 5.31 12.758 5.31 L 46.415 5.414 C 51.377 5.414 52.828 6.347 52.828 11.309 L 52.828 49.311 Z" style="fill: rgb(16, 114, 134);"/>
  <g/>
  <g/>
  <g/>
  <g/>
  <g/>
  <g/>
  <g/>
  <g/>
  <g/>
  <g/>
  <g/>
  <g/>
  <g/>
  <g/>
  <g/>
</svg>